<svg height="512" viewBox="0 0 512 512" width="512" xmlns="http://www.w3.org/2000/svg"><g id="Line_stroke_cut_Ex" data-name="Line stroke cut Ex"><g><path d="m64.9 255.115 9.967-96.315a72.553 72.553 0 0 0 22.186.634q-.037.787-.038 1.581a32 32 0 1 0 54.628-22.626 32 32 0 0 0 -45.253 0 32.271 32.271 0 0 0 -4.088 4.994l-.3-1.146a56.394 56.394 0 0 1 -25.485.581l1.375-13.3a22.1 22.1 0 0 1 19.62-19.62l79.307-8.2-1.646-15.916-15.173 1.565a72 72 0 1 0 -100.725 66.674l-10.288 99.448a37.844 37.844 0 0 0 10.929 30.779l17.407 17.408 11.315-11.312-17.409-17.409a21.912 21.912 0 0 1 -6.329-17.82zm52.8-105.415a16 16 0 0 1 22.626 0 16 16 0 1 1 -22.627 0zm-85.7-61.7a56 56 0 0 1 112 0q0 .5-.009 1l-48.122 4.98a38.163 38.163 0 0 0 -33.889 33.889l-.951 9.2a56.046 56.046 0 0 1 -29.029-49.069z"/><path d="m426.677 266.343-11.315 11.314 26.195 26.195a22 22 0 0 1 0 31.111l-138.594 138.593a22 22 0 0 1 -31.111 0l-170.195-170.194-11.314 11.315 170.194 170.192a38 38 0 0 0 53.74 0l138.593-138.592a38 38 0 0 0 0-53.74z"/><path d="m287.407 459.028a17.889 17.889 0 0 0 12.729-5.271l8.1-8.1-11.314-11.314-8.1 8.1a2 2 0 0 1 -2.828 0l-8.336-8.336-11.314 11.315 8.336 8.336a17.887 17.887 0 0 0 12.727 5.27z"/><path d="m402.343 328.921 11.314 11.314 8.1-8.1a18 18 0 0 0 0-25.457l-8.336-8.336-11.315 11.314 8.336 8.336a2 2 0 0 1 0 2.828z"/><path d="m98.552 240.822-15.916-1.644-1.23 11.9a17.924 17.924 0 0 0 5.175 14.582l11.762 11.762 11.314-11.315-11.757-11.762a1.99 1.99 0 0 1 -.575-1.62z"/><path d="m493.6 66.6a8 8 0 0 0 -5.9-2.6h-288a8 8 0 0 0 -7.97 7.3l-15.212 173.87a8 8 0 0 0 1.6 8.256l96 104a8.006 8.006 0 0 0 5.882 2.574h16a8 8 0 0 0 8-8v-96h168.3a8 8 0 0 0 7.97-7.3l7-80-15.94-1.4-6.36 72.7h-271.939l14-160h271.938l-6.239 71.3 15.94 1.394 7-80a8 8 0 0 0 -2.07-6.094zm-205.6 189.4v88h-4.5l-81.232-88z"/><path d="m242 136h30v-16h-30a18.021 18.021 0 0 0 -18 18v12a18.021 18.021 0 0 0 18 18h12a2 2 0 0 1 2 2v12a2 2 0 0 1 -2 2h-30v16h30a18.021 18.021 0 0 0 18-18v-12a18.021 18.021 0 0 0 -18-18h-12a2 2 0 0 1 -2-2v-12a2 2 0 0 1 2-2z"/><path d="m336 200v-56a24 24 0 0 0 -48 0v56h16v-24h16v24zm-32-40v-16a8 8 0 0 1 16 0v16z"/><path d="m352 120v72a8 8 0 0 0 8 8h32v-16h-24v-64z"/><path d="m448 136v-16h-32a8 8 0 0 0 -8 8v64a8 8 0 0 0 8 8h32v-16h-24v-16h16v-16h-16v-16z"/></g></g></svg>