<?xml version="1.0" standalone="no"?>
<!DOCTYPE svg PUBLIC "-//W3C//DTD SVG 20010904//EN"
 "http://www.w3.org/TR/2001/REC-SVG-20010904/DTD/svg10.dtd">
<svg version="1.0" xmlns="http://www.w3.org/2000/svg"
 width="1027.000000pt" height="1026.000000pt" viewBox="0 0 1027.000000 1026.000000"
 preserveAspectRatio="xMidYMid meet">

<g transform="translate(0.000000,1026.000000) scale(0.100000,-0.100000)"
fill="#000000" stroke="none">
<path d="M0 5130 l0 -5130 5135 0 5135 0 0 5130 0 5130 -5135 0 -5135 0 0
-5130z m5464 4009 c19 -15 26 -30 26 -54 l0 -33 308 -4 c290 -3 311 -5 372
-27 170 -60 293 -186 352 -361 20 -60 22 -89 26 -387 l4 -323 461 0 c427 0
468 -2 545 -20 315 -76 561 -321 641 -639 l21 -85 0 -2342 c0 -2033 -2 -2352
-15 -2413 -67 -320 -303 -569 -630 -667 -54 -16 -122 -18 -732 -21 l-673 -4
-2 1588 -3 1588 -23 47 c-28 55 -95 120 -149 144 -56 25 -166 23 -224 -3 -55
-25 -111 -78 -141 -136 l-23 -42 -3 -1592 -2 -1593 -345 0 -345 0 0 1765 c0
1752 0 1765 -20 1819 -25 66 -85 130 -148 159 -46 21 -61 22 -602 27 -619 6
-597 4 -695 78 -53 40 -107 120 -128 187 -19 67 -13 211 12 277 48 125 164
209 316 228 53 7 603 10 1645 8 l1565 -3 50 -23 c59 -27 80 -45 110 -93 78
-122 73 -307 -13 -473 -33 -64 -37 -79 -37 -151 0 -86 16 -129 70 -193 33 -40
118 -81 181 -88 130 -16 235 56 309 211 190 395 133 857 -139 1130 -116 116
-264 199 -413 230 -104 22 -3340 22 -3466 0 -301 -52 -535 -227 -667 -499 -68
-138 -91 -231 -97 -391 -6 -155 6 -245 51 -377 94 -277 297 -481 571 -575 129
-44 230 -53 618 -53 l357 0 0 -1600 0 -1600 -763 0 c-489 0 -785 4 -823 11
-333 59 -588 285 -691 616 l-28 88 0 2375 c0 2284 1 2378 19 2445 22 83 81
215 127 282 96 140 255 265 410 323 126 46 168 50 634 50 242 0 450 3 463 6
l22 6 0 315 c0 310 0 316 25 390 59 174 185 299 364 361 37 12 108 16 362 19
l315 4 10 42 c14 66 19 67 355 67 285 0 297 -1 323 -21z m-1744 -7693 c0 -191
-30 -260 -142 -322 -46 -25 -63 -29 -133 -29 -92 0 -137 19 -196 82 -67 69
-73 92 -77 256 l-4 147 276 0 276 0 0 -134z m3470 4 c0 -164 -17 -218 -91
-284 -140 -126 -353 -87 -435 79 -23 47 -27 71 -31 179 -3 68 -3 131 0 140 6
14 39 16 282 16 l275 0 0 -130z"/>
<path d="M4177 8849 c-102 -24 -197 -101 -244 -197 l-28 -57 0 -320 0 -320
1225 0 1225 0 0 305 c0 275 -2 310 -19 356 -27 73 -78 138 -139 179 -101 67
-72 65 -1077 64 -498 -1 -922 -5 -943 -10z"/>
</g>
</svg>
