<svg height="512" viewBox="0 0 60 60" width="512" xmlns="http://www.w3.org/2000/svg"><g id="Page-1" fill="none" fill-rule="evenodd"><g id="015---Veg-Stall" fill-rule="nonzero" transform="translate(0 -1)"><path id="Shape" d="m13 29v1c0 2.209139-1.790861 4-4 4h-3c-.33773489.0030147-.67426164-.0407338-1-.13-.68632691-.1691791-1.31692571-.5137686-1.83-1-.75984013-.760562-1.18153465-1.7949751-1.17-2.87-.0022082-.3398782.0518558-.6777782.16-1z" fill="#f44335"/><path id="Shape" d="m24 29v1c0 2.209139-1.790861 4-4 4h-3c-2.209139 0-4-1.790861-4-4v-1z" fill="#f5f5f5"/><path id="Shape" d="m36 29v1c0 2.209139-1.790861 4-4 4h-4c-2.209139 0-4-1.790861-4-4v-1z" fill="#f44335"/><path id="Shape" d="m57.84 29h-55.68c.08262847-.2979072.21080843-.5812523.38-.84l5-7.84c.91325489-1.4384407 2.4961531-2.3128035 4.2-2.32h4.26c.4043965 1.2963497.9510592 2.543948 1.63 3.72 12.05 3.37 24-1.49 28.48-3.71h2.17c1.7074031.0037897 3.2948339.8785733 4.21 2.32l5 7.84c.1577743.257475.2757708.5372952.35.83z" fill="#f44335"/><path id="Shape" d="m57.46 28.16-5-7.84c-.9132549-1.4384407-2.4961531-2.3128035-4.2-2.32h-2.17-.1c1.4325908.2137139 2.7021059 1.0381691 3.48 2.26l5 7.84c.1691916.2587477.2973715.5420928.38.84h3c-.0913148-.2776078-.2227027-.5403835-.39-.78z" fill="#c81e1e"/><path id="Shape" d="m58 30c.0008345 1.0611852-.4200457 2.0792116-1.17 2.83-.5130743.4862314-1.1436731.8308209-1.83 1-.3238271.1028066-.6603919.1600226-1 .17h-3c-2.209139 0-4-1.790861-4-4v-1h10.84c.1081442.3222218.1622082.6601218.16 1z" fill="#f44335"/><path id="Shape" d="m57.84 29h-3c.1081442.3222218.1622082.6601218.16 1 .0008345 1.0611852-.4200457 2.0792116-1.17 2.83-.5130743.4862314-1.1436731.8308209-1.83 1-.3238271.1028066-.6603919.1600226-1 .17h3c.3377349.0030147.6742616-.0407338 1-.13.6863269-.1691791 1.3169257-.5137686 1.83-1 .7598401-.760562 1.1815346-1.7949751 1.17-2.87.0022082-.3398782-.0518558-.6777782-.16-1z" fill="#c81e1e"/><path id="Shape" d="m47 29v1c0 2.209139-1.790861 4-4 4h-3c-2.209139 0-4-1.790861-4-4v-1z" fill="#f5f5f5"/><path id="Shape" d="m9 34v18h-4v-18.13c.32573836.0892662.66226511.1330147 1 .13z" fill="#91562d"/><path id="Shape" d="m55 33.87v18.13h-4v-18h3c.3377349.0030147.6742616-.0407338 1-.13z" fill="#91562d"/><rect id="Rectangle-path" fill="#7f8e94" height="4" rx="2" width="58" x="1" y="52"/><path id="Shape" d="m57 52h-3c1.1045695 0 2 .8954305 2 2s-.8954305 2-2 2h3c1.1045695 0 2-.8954305 2-2s-.8954305-2-2-2z" fill="#545c60"/><path id="Shape" d="m3 56h54v2c0 1.1045695-.8954305 2-2 2h-50c-1.1045695 0-2-.8954305-2-2z" fill="#ffdc00"/><path id="Shape" d="m54 56v2c0 1.1045695-.8954305 2-2 2h3c1.1045695 0 2-.8954305 2-2v-2z" fill="#fec108"/><path id="Shape" d="m46.11 18c-4.52 2.22-16.43 7.08-28.48 3.71-.6782688-1.1728825-1.2249164-2.4170927-1.63-3.71-1.9748748-5.4125145-1.0184792-11.46086591 2.53-16 0 0 19.47-.52 28.37 13.13.3067959.4779012.3959583 1.0636959.2452423 1.6112339-.1507161.5475381-.527098 1.0051864-1.0352423 1.2587661z" fill="#ff9801"/><path id="Shape" d="m46.9 15.13c-8.9-13.65-28.37-13.13-28.37-13.13-.0241393.0384398-.0508677.07519146-.08.11 5.76.45 18.66 2.62 25.45 13 .3138619.4793421.4070714 1.0702747.2559932 1.6229532s-.5319342 1.0140221-1.0459932 1.2670468c-5.7235821 2.8137686-11.9527594 4.4526678-18.32 4.82 9.36.41 17.7-3 21.32-4.82.5081443-.2535797.8845262-.711228 1.0352423-1.2587661.150716-.547538.0615536-1.1333327-.2452423-1.6112339z" fill="#f57c00"/><path id="Shape" d="m27 43c0 7-1 9-5 9s-5-2-5-9c.6791649.0204702 1.3522238.1348903 2 .34 1.3766497.3392476 2.498394 1.3338609 3 2.66.501606-1.3261391 1.6233503-2.3207524 3-2.66.6477762-.2051097 1.3208351-.3195298 2-.34z" fill="#a4c400"/><path id="Shape" d="m25 41v2.34c-1.3766497.3392476-2.498394 1.3338609-3 2.66-.501606-1.3261391-1.6233503-2.3207524-3-2.66v-2.34c0-1.6568542 1.3431458-2.9999999 3-2.9999999s3 1.3431457 3 2.9999999z" fill="#ffdc00"/><path id="Shape" d="m43 43c0 7-1 9-5 9s-5-2-5-9c.6791649.0204702 1.3522238.1348903 2 .34 1.3766497.3392476 2.498394 1.3338609 3 2.66.501606-1.3261391 1.6233503-2.3207524 3-2.66.6477762-.2051097 1.3208351-.3195298 2-.34z" fill="#a4c400"/><path id="Shape" d="m41 41v2.34c-1.3766497.3392476-2.498394 1.3338609-3 2.66-.501606-1.3261391-1.6233503-2.3207524-3-2.66v-2.34c0-1.6568542 1.3431458-3 3-3s3 1.3431458 3 3z" fill="#ffdc00"/><g fill="#000"><path id="Shape" d="m57 51h-1v-16.43c.571427-.2339524 1.0938194-.5731682 1.54-1 .9445364-.9468465 1.4703748-2.2326296 1.46-3.57-.0007879-.8439713-.2437353-1.6699925-.7-2.38l-5-7.83c-1.0944841-1.7284219-2.9942143-2.7800583-5.04-2.79h-.15c.2234493-.8239894.0852419-1.7041522-.38-2.42-9.12-13.96-28.4-13.58-29.23-13.58-.2936912.01031139-.5679802.14928448-.75.38-1.8280037 2.26486314-3.0342995 4.96696577-3.5 7.84-1.3042094-1.55725195-3.0517266-2.68040668-5.01-3.22-.55228475-.13254834-1.10745166.20771525-1.24.76s.20771525 1.10745166.76 1.24c1.473089.40898071 2.7963258 1.2355696 3.81 2.38-2.92-.51-7.48-.56-10.35 3-.34035688.4313699-.26890818 1.0565461.16 1.4.17593927.1411606.39443576.2186916.62.22.30427197-.0014028.59135261-.1412626.78-.38 2-2.54 5.37-2.7 7.81-2.38-.463059.2927958-.8982231.6275374-1.3 1-.1893127.1877666-.29579832.4433625-.29579832.71s.10648562.5222334.29579832.71c.1877666.1893127.4433625.2957983.71.2957983s.5222334-.1064856.71-.2957983c.6564797-.6825231 1.4651928-1.1999624 2.36-1.51.0766133 1.2837834.2809561 2.5567383.61 3.8h-2.94c-2.0295984.0213039-3.910834 1.0672709-5 2.78l-5 7.84c-.47965854.7198906-.73700272 1.5649533-.74 2.43.00028143 1.3284254.52919338 2.6021317 1.47 3.54.44216353.4271002.96134376.7664337 1.53 1v16.46h-1c-1.45200487.0112653-2.687509 1.0608126-2.93339863 2.4918903-.24588964 1.4310777.56842927 2.8328283 1.93339863 3.3281097v1.18c0 1.6568542 1.34314575 3 3 3h50c1.6568542 0 3-1.3431458 3-3v-1.18c1.3649694-.4952814 2.1792883-1.897032 1.9333986-3.3281097-.2458896-1.4310777-1.4813937-2.480625-2.9333986-2.4918903zm-3 0h-2v-16h2zm-11.37 0c1.09-1.63 1.37-4.28 1.37-8 0-.5522847-.4477153-1-1-1-.334824.0101288-.668748.040182-1 .09v-1.09c0-2.209139-1.790861-4-4-4s-4 1.790861-4 4v1.09c-.331252-.049818-.665176-.0798712-1-.09-.5522847 0-1 .4477153-1 1 0 3.72.28 6.37 1.37 8h-6.74c1.09-1.63 1.37-4.28 1.37-8 0-.5522847-.4477153-1-1-1-.334824.0101288-.668748.040182-1 .09v-1.09c0-2.209139-1.790861-4-4-4s-4 1.790861-4 4v1.09c-.331252-.049818-.665176-.0798712-1-.09-.5522847 0-1 .4477153-1 1 0 3.72.28 6.37 1.37 8h-7.37v-16.1c1.1987913-.2449326 2.2661605-.920933 3-1.9.9442719 1.2590292 2.4262135 2 4 2h3c1.5737865 0 3.0557281-.7409708 4-2 .9442719 1.2590292 2.4262135 2 4 2h4c1.5737865 0 3.0557281-.7409708 4-2 .9442719 1.2590292 2.4262135 2 4 2h3c1.5737865 0 3.0557281-.7409708 4-2 .7286915.9903045 1.7967177 1.6774014 3 1.93v16.07zm-2.63-8.36c-.7588492.3002079-1.441849.7646478-2 1.36-.5550806-.6062107-1.2383166-1.0810597-2-1.39v-1.61c0-1.1045695.8954305-2 2-2s2 .8954305 2 2zm-6 1.47.6.15c1.1022855.2396069 2.0131822 1.0118074 2.43 2.06.1348836.4103745.5180268.6877501.95.6877501s.8151164-.2773756.95-.6877501c.5384819-1.2139519 1.6803288-2.0513063 3-2.2-.12 6.23-1.3 6.88-4 6.88s-3.8-.65-3.93-6.89zm-10-1.47c-.7588492.3002079-1.441849.7646478-2 1.36-.5550806-.6062107-1.2383166-1.0810597-2-1.39v-1.61c0-1.1045695.8954305-2 2-2s2 .8954305 2 2zm-6 1.47.6.15c1.1022855.2396069 2.0131822 1.0118074 2.43 2.06.1348836.4103745.5180268.6877501.95.6877501s.8151164-.2773756.95-.6877501c.5384819-1.2139519 1.6803288-2.0513063 3-2.2-.12 6.23-1.3 6.88-4 6.88s-3.8-.65-3.93-6.89zm28-14.11c0 1.6568542-1.3431458 3-3 3h-3c-1.6568542 0-3-1.3431458-3-3zm-11 0c0 1.6568542-1.3431458 3-3 3h-4c-1.6568542 0-3-1.3431458-3-3zm-21 0h9c0 1.6568542-1.3431458 3-3 3h-3c-1.6568542 0-3-1.3431458-3-3zm42.13 2.12c-.5645172.565225-1.3311539.8819575-2.13.88h-3c-1.6568542 0-3-1.3431458-3-3h9.0000091c.0019456.7939488-.3109049 1.5562971-.8700091 2.12zm-37.13-29.12c3 0 19.29.82 27 12.68.1480432.235216.1915191.5214327.12.79-.0754714.2801109-.2688645.5136421-.53.64-4.4 2.16-15.81 6.81-27.38 3.75-.88-1.75-4.91-10.17.79-17.86zm-10.62 17.85c.73202319-1.14846 1.9980901-1.8455504 3.36-1.85h3.55c.3883578 1.1264944.88047 2.2144974 1.47 3.25.1330373.2105616.3398633.3638981.58.43 2.9310555.8083914 5.9595677 1.208828 9 1.19 6.9414842-.1496629 13.7667873-1.8116243 20-4.87h1.92c1.3674143.0032186 2.6384351.7047316 3.37 1.86l4.54 7.14h-8.49l-1.75-4.37c-.2043454-.5136248-.7863752-.7643454-1.3-.56s-.7643454.7863752-.56 1.3l1.45 3.63h-8.52v-1c0-.5522847-.4477153-1-1-1s-1 .4477153-1 1v1h-10v-1c0-.5522847-.4477153-1-1-1s-1 .4477153-1 1v1h-8.52l.62-1.56c.2043454-.5136248-.0463752-1.0956546-.56-1.3s-1.0956546.0463752-1.3.56l-.92 2.3h-8.49zm-5.38 9.15h9c0 1.6568542-1.3431458 3-3 3h-3c-1.65685425 0-3-1.3431458-3-3zm3 5h2v16h-2zm50 23c0 .5522847-.4477153 1-1 1h-50c-.55228475 0-1-.4477153-1-1v-1h52zm1-3h-54c-.55228475 0-1-.4477153-1-1s.44771525-1 1-1h54c.5522847 0 1 .4477153 1 1s-.4477153 1-1 1z"/><path id="Shape" d="m23 18h.2c.267885-.048025.5046241-.2031601.6555889-.4296074.1509649-.2264472.203113-.504643.1444111-.7703926-.5374661-2.8126204-.2169267-5.7218636.92-8.35.2454836-.4943143.0440809-1.0940469-.45-1.34-.4916536-.2469243-1.0904244-.05031299-1.34.44-1.3620618 3.0233734-1.7567268 6.3937426-1.13 9.65.0964736.4731232.5172392.8097357 1 .8z"/><path id="Shape" d="m29 17c.5522847 0 1-.4477153 1-1-.0834213-1.8953814.2228934-3.7877257.9-5.56.2255152-.49096828.0202733-1.07228583-.4635108-1.31282656-.4837842-.24054073-1.0711515-.05331379-1.3264892.42282656-.8308998 2.0447696-1.2095621 4.2451044-1.11 6.45 0 .2652165.1053568.5195704.2928932.7071068s.4418903.2928932.7071068.2928932z"/><path id="Shape" d="m35 17c.5522847 0 1-.4477153 1-1 .060137-1.2315294.3661467-2.4385677.9-3.55.2454836-.4943143.0440809-1.0940469-.45-1.34-.4916536-.2469243-1.0904244-.050313-1.34.44-.6724549 1.3910822-1.0503485 2.9060612-1.11 4.45 0 .5522847.4477153 1 1 1z"/></g></g></g></svg>